<svg width="24" height="20" viewBox="0 0 24 20" fill="none" xmlns="http://www.w3.org/2000/svg">
<path d="M4.53553 18.2678C5.00437 17.7989 5.26777 17.163 5.26777 16.5V5L1 4.99993V16.4999C1 17.163 1.26339 17.7989 1.73223 18.2677C2.20107 18.7365 2.10473 19 2.76777 19C3.43081 19 4.06669 18.7366 4.53553 18.2678Z" fill="#FFF8F8"/>
<path fill-rule="evenodd" clip-rule="evenodd" d="M5.26777 16.5C5.26777 17.163 5.00437 17.7989 4.53553 18.2678C4.06669 18.7366 3.43081 19 2.76777 19H19.7678C20.4308 19 21.0667 18.7366 21.5355 18.2678C22.0044 17.7989 22.2678 17.163 22.2678 16.5V1H5.26777V5V16.5ZM18.7678 5H15.7678V9H18.7678V5Z" fill="#FFF8F8"/>
<path d="M15.7678 5H18.7678V9H15.7678V5Z" fill="#FFF8F8"/>
<path d="M9 12.9999H20M9 8.99993H13M9 4.99993H13M2.76777 19C3.43081 19 4.06669 18.7366 4.53553 18.2678C5.00437 17.7989 5.26777 17.163 5.26777 16.5V5M2.76777 19C2.10473 19 2.20107 18.7365 1.73223 18.2677C1.26339 17.7989 1 17.163 1 16.4999V4.99993L5.26777 5M2.76777 19H19.7678C20.4308 19 21.0667 18.7366 21.5355 18.2678C22.0044 17.7989 22.2678 17.163 22.2678 16.5V1H5.26777V5M6.025 4.99993L5.26777 5M15.7678 5H18.7678V9H15.7678V5Z" stroke="black" stroke-width="2"/>
</svg>
