<svg width="19" height="19" viewBox="0 0 19 19" fill="none" xmlns="http://www.w3.org/2000/svg">
<path d="M3.4375 5.96L3.9575 5.43C4.5375 4.85 5.4975 4.85 6.0975 5.47L6.1175 5.5C6.6075 6 7.2575 6.24 7.9675 6.31C8.9375 6.4 9.8775 6.92 10.4975 7.86C11.1775 8.94 11.1675 10.38 10.4575 11.45C10.1897 11.8735 9.82958 12.2309 9.4041 12.4955C8.97861 12.7601 8.49878 12.925 8.00053 12.9779C7.50228 13.0308 6.99852 12.9703 6.52696 12.801C6.0554 12.6316 5.62825 12.3578 5.2775 12C4.7175 11.45 4.3975 10.74 4.3175 10C4.2375 9.27 3.9475 8.58 3.4375 8.07C2.8575 7.5 2.8575 6.54 3.4375 5.96ZM7.6375 14C6.4675 14 5.3775 13.55 4.5675 12.72C3.8675 12 3.4275 11.1 3.3175 10.12C3.2875 9.82 3.1975 9.43 2.9575 9.07C2.3575 9.9 1.9975 10.9 1.9975 12C1.9975 13.64 2.7975 15.09 4.0275 16H16.9975V15C16.9975 11.4 14.6075 8.35 11.3375 7.35C12.2275 8.75 12.2075 10.62 11.2975 12C10.4975 13.25 9.1175 14 7.6375 14ZM12.7775 5.56H14.0475C14.9175 5.56 15.6775 6.17 15.6775 7.26V8H16.9275V7C16.9275 5.5 15.5975 4.36 14.0475 4.36H12.7775C11.9475 4.36 11.2375 3.54 11.2375 2.7C11.2375 1.86 11.9475 1.24 12.7775 1.24V0C11.2375 0 9.9975 1.24 9.9975 2.78C9.9975 4.32 11.2375 5.56 12.7775 5.56ZM2.4975 5.55C2.5575 5.45 2.6375 5.35 2.7275 5.25L3.2475 4.73C3.3375 4.64 3.4375 4.57 3.5375 4.5L2.1275 3.07C2.2675 2.8 2.2175 2.45 1.9975 2.22C1.8543 2.0806 1.66234 2.0026 1.4625 2.0026C1.26265 2.0026 1.0707 2.0806 0.9275 2.22C0.7875 2.36 0.7175 2.53 0.7075 2.71C0.5275 2.72 0.3575 2.79 0.2175 2.93C-0.0725 3.22 -0.0725 3.7 0.2175 4C0.4475 4.22 0.7875 4.27 1.0675 4.13L2.4975 5.55ZM16.3875 2.39C16.8975 1.88 17.2175 1.19 17.2175 0.42H15.9675C15.9675 1.25 15.2675 1.95 14.4375 1.95V3.19C16.2975 3.19 17.7575 4.71 17.7575 6.57V9H18.9975V6.57C19.0025 5.69771 18.7599 4.8419 18.2979 4.10199C17.8359 3.36208 17.1734 2.76843 16.3875 2.39ZM2.9975 19H16.9975C18.1075 19 18.9975 18.11 18.9975 17H0.9975C0.9975 17.5304 1.20821 18.0391 1.58329 18.4142C1.95836 18.7893 2.46707 19 2.9975 19Z" fill="black"/>
</svg>
