<svg width="19" height="19" viewBox="0 0 19 19" fill="none" xmlns="http://www.w3.org/2000/svg">
<path fill-rule="evenodd" clip-rule="evenodd" d="M3.9575 5.43L3.4375 5.96C2.8575 6.54 2.8575 7.5 3.4375 8.07C3.9475 8.58 4.2375 9.27 4.3175 10C4.3975 10.74 4.7175 11.45 5.2775 12C5.62825 12.3578 6.0554 12.6316 6.52696 12.801C6.99852 12.9703 7.50228 13.0308 8.00053 12.9779C8.49878 12.925 8.97861 12.7601 9.4041 12.4955C9.82958 12.2309 10.1897 11.8735 10.4575 11.45C11.1675 10.38 11.1775 8.94 10.4975 7.86C9.8775 6.92 8.9375 6.4 7.9675 6.31C7.2575 6.24 6.6075 6 6.1175 5.5L6.0975 5.47C5.4975 4.85 4.5375 4.85 3.9575 5.43ZM4.5675 12.72C5.3775 13.55 6.4675 14 7.6375 14C9.1175 14 10.4975 13.25 11.2975 12C12.2075 10.62 12.2275 8.75 11.3375 7.35C14.6075 8.35 16.9975 11.4 16.9975 15V16H4.0275C2.7975 15.09 1.9975 13.64 1.9975 12C1.9975 10.9 2.3575 9.9 2.9575 9.07C3.1975 9.43 3.2875 9.82 3.3175 10.12C3.4275 11.1 3.8675 12 4.5675 12.72ZM14.0475 5.56H12.7775C11.2375 5.56 9.9975 4.32 9.9975 2.78C9.9975 1.24 11.2375 0 12.7775 0V1.24C11.9475 1.24 11.2375 1.86 11.2375 2.7C11.2375 3.54 11.9475 4.36 12.7775 4.36H14.0475C15.5975 4.36 16.9275 5.5 16.9275 7V8H15.6775V7.26C15.6775 6.17 14.9175 5.56 14.0475 5.56ZM2.7275 5.25C2.6375 5.35 2.5575 5.45 2.4975 5.55L1.0675 4.13C0.7875 4.27 0.4475 4.22 0.2175 4C-0.0725 3.7 -0.0725 3.22 0.2175 2.93C0.3575 2.79 0.5275 2.72 0.7075 2.71C0.7175 2.53 0.7875 2.36 0.9275 2.22C1.0707 2.0806 1.26265 2.0026 1.4625 2.0026C1.66234 2.0026 1.8543 2.0806 1.9975 2.22C2.2175 2.45 2.2675 2.8 2.1275 3.07L3.5375 4.5C3.4375 4.57 3.3375 4.64 3.2475 4.73L2.7275 5.25ZM17.2175 0.42C17.2175 1.19 16.8975 1.88 16.3875 2.39C17.1734 2.76843 17.8359 3.36208 18.2979 4.10199C18.7599 4.8419 19.0025 5.69771 18.9975 6.57V9H17.7575V6.57C17.7575 4.71 16.2975 3.19 14.4375 3.19V1.95C15.2675 1.95 15.9675 1.25 15.9675 0.42H17.2175Z" fill="#FFFDFD"/>
<path d="M2.9975 19H16.9975C18.1075 19 18.9975 18.11 18.9975 17H0.9975C0.9975 17.5304 1.20821 18.0391 1.58329 18.4142C1.95836 18.7893 2.46707 19 2.9975 19Z" fill="#F0F0F0" fill-opacity="0.93"/>
<path d="M3.50821 6.03071L3.50888 6.03003L4.02821 5.50071C4.02832 5.5006 4.02844 5.50048 4.02855 5.50037C4.56646 4.96284 5.45738 4.95919 6.01941 5.53314L6.03429 5.55547L6.0395 5.56328L6.04608 5.56999C6.55707 6.09141 7.23175 6.33795 7.95769 6.40952L7.95826 6.40957C8.89807 6.49677 9.81032 7.00034 10.4134 7.91416C11.0721 8.96104 11.0621 10.3581 10.3742 11.3947L10.3742 11.3947L10.373 11.3966C10.1132 11.8073 9.76397 12.1539 9.35129 12.4106C8.93861 12.6672 8.47323 12.8272 7.98997 12.8785C7.50672 12.9298 7.01813 12.8711 6.56076 12.7069C6.10339 12.5426 5.6891 12.277 5.34891 11.93L5.34757 11.9287C4.80504 11.3958 4.49459 10.7077 4.41692 9.98925L4.4169 9.98911C4.33486 9.24046 4.03692 8.528 3.50821 7.99929L3.50759 7.99868C2.96781 7.4682 2.96692 6.572 3.50821 6.03071ZM4.4958 12.7897L4.49593 12.7898C5.32522 13.6396 6.44124 14.1 7.6375 14.1C9.1512 14.1 10.5628 13.333 11.3814 12.0544C12.2636 10.7161 12.3283 8.92956 11.5581 7.52665C14.6585 8.59 16.8975 11.5376 16.8975 15V15.9H4.06065C2.86961 15.0066 2.0975 13.5948 2.0975 12C2.0975 10.9766 2.4155 10.0413 2.95184 9.25225C3.12271 9.55754 3.19256 9.87564 3.21799 10.13L3.21812 10.1312C3.33073 11.1343 3.78116 12.0546 4.4958 12.7897ZM2.65679 5.17929L2.65669 5.17919L2.65317 5.1831C2.59136 5.25178 2.53285 5.32188 2.48149 5.39317L1.13796 4.05904L1.08701 4.00844L1.02278 4.04056C0.781171 4.16136 0.48754 4.11879 0.288037 3.92909C0.0362256 3.66709 0.038361 3.25056 0.288211 3.00071C0.410168 2.87875 0.556686 2.81853 0.713047 2.80985L0.802383 2.80488L0.807346 2.71555C0.816021 2.55939 0.876096 2.41305 0.997733 2.29119C1.12221 2.17026 1.28893 2.1026 1.4625 2.1026C1.63569 2.1026 1.80207 2.16997 1.92646 2.29041C2.11659 2.49029 2.15829 2.79337 2.03872 3.02397L2.00528 3.08847L2.05629 3.14021L3.38371 4.48646C3.31392 4.53724 3.24302 4.59306 3.17679 4.65929L2.65679 5.17929ZM16.3168 2.31929L16.2171 2.41895L16.3441 2.4801C17.113 2.85032 17.7611 3.43109 18.2131 4.15495C18.6651 4.87881 18.9024 5.71606 18.8975 6.56943V6.57V8.9H17.8575V6.57C17.8575 4.6905 16.407 3.1448 14.5375 3.09143V2.04682C15.345 1.99546 16.013 1.3275 16.0643 0.52H17.1156C17.0893 1.22105 16.7874 1.84871 16.3168 2.31929ZM14.0475 5.46H12.7775C11.2927 5.46 10.0975 4.26477 10.0975 2.78C10.0975 1.32871 11.2394 0.154056 12.6775 0.101813V1.14285C11.8427 1.19057 11.1375 1.83198 11.1375 2.7C11.1375 3.14747 11.3261 3.58584 11.6222 3.91219C11.9184 4.23863 12.3288 4.46 12.7775 4.46H14.0475C15.5527 4.46 16.8275 5.56509 16.8275 7V7.9H15.7775V7.26C15.7775 6.69055 15.5783 6.23871 15.2582 5.92935C14.939 5.62081 14.5058 5.46 14.0475 5.46ZM16.9975 18.9H2.9975C2.49359 18.9 2.01032 18.6998 1.654 18.3435C1.32132 18.0108 1.12475 17.5675 1.10013 17.1H18.895C18.8435 18.1077 18.0187 18.9 16.9975 18.9Z" stroke="black" stroke-width="0.2"/>
<path d="M3.50821 6.03071L3.50888 6.03003L4.02821 5.50071C4.02832 5.5006 4.02844 5.50048 4.02855 5.50037C4.56646 4.96284 5.45738 4.95919 6.01941 5.53314L6.03429 5.55547L6.0395 5.56328L6.04608 5.56999C6.55707 6.09141 7.23175 6.33795 7.95769 6.40952L7.95826 6.40957C8.89807 6.49677 9.81032 7.00034 10.4134 7.91416C11.0721 8.96104 11.0621 10.3581 10.3742 11.3947L10.3742 11.3947L10.373 11.3966C10.1132 11.8073 9.76397 12.1539 9.35129 12.4106C8.93861 12.6672 8.47323 12.8272 7.98997 12.8785C7.50672 12.9298 7.01813 12.8711 6.56076 12.7069C6.10339 12.5426 5.6891 12.277 5.34891 11.93L5.34757 11.9287C4.80504 11.3958 4.49459 10.7077 4.41692 9.98925L4.4169 9.98911C4.33486 9.24046 4.03692 8.528 3.50821 7.99929L3.50759 7.99868C2.96781 7.4682 2.96692 6.572 3.50821 6.03071ZM4.4958 12.7897L4.49593 12.7898C5.32522 13.6396 6.44124 14.1 7.6375 14.1C9.1512 14.1 10.5628 13.333 11.3814 12.0544C12.2636 10.7161 12.3283 8.92956 11.5581 7.52665C14.6585 8.59 16.8975 11.5376 16.8975 15V15.9H4.06065C2.86961 15.0066 2.0975 13.5948 2.0975 12C2.0975 10.9766 2.4155 10.0413 2.95184 9.25225C3.12271 9.55754 3.19256 9.87564 3.21799 10.13L3.21812 10.1312C3.33073 11.1343 3.78116 12.0546 4.4958 12.7897ZM2.65679 5.17929L2.65669 5.17919L2.65317 5.1831C2.59136 5.25178 2.53285 5.32188 2.48149 5.39317L1.13796 4.05904L1.08701 4.00844L1.02278 4.04056C0.781171 4.16136 0.48754 4.11879 0.288037 3.92909C0.0362256 3.66709 0.038361 3.25056 0.288211 3.00071C0.410168 2.87875 0.556686 2.81853 0.713047 2.80985L0.802383 2.80488L0.807346 2.71555C0.816021 2.55939 0.876096 2.41305 0.997733 2.29119C1.12221 2.17026 1.28893 2.1026 1.4625 2.1026C1.63569 2.1026 1.80207 2.16997 1.92646 2.29041C2.11659 2.49029 2.15829 2.79337 2.03872 3.02397L2.00528 3.08847L2.05629 3.14021L3.38371 4.48646C3.31392 4.53724 3.24302 4.59306 3.17679 4.65929L2.65679 5.17929ZM16.3168 2.31929L16.2171 2.41895L16.3441 2.4801C17.113 2.85032 17.7611 3.43109 18.2131 4.15495C18.6651 4.87881 18.9024 5.71606 18.8975 6.56943V6.57V8.9H17.8575V6.57C17.8575 4.6905 16.407 3.1448 14.5375 3.09143V2.04682C15.345 1.99546 16.013 1.3275 16.0643 0.52H17.1156C17.0893 1.22105 16.7874 1.84871 16.3168 2.31929ZM14.0475 5.46H12.7775C11.2927 5.46 10.0975 4.26477 10.0975 2.78C10.0975 1.32871 11.2394 0.154056 12.6775 0.101813V1.14285C11.8427 1.19057 11.1375 1.83198 11.1375 2.7C11.1375 3.14747 11.3261 3.58584 11.6222 3.91219C11.9184 4.23863 12.3288 4.46 12.7775 4.46H14.0475C15.5527 4.46 16.8275 5.56509 16.8275 7V7.9H15.7775V7.26C15.7775 6.69055 15.5783 6.23871 15.2582 5.92935C14.939 5.62081 14.5058 5.46 14.0475 5.46ZM16.9975 18.9H2.9975C2.49359 18.9 2.01032 18.6998 1.654 18.3435C1.32132 18.0108 1.12475 17.5675 1.10013 17.1H18.895C18.8435 18.1077 18.0187 18.9 16.9975 18.9Z" stroke="black" stroke-opacity="0.2" stroke-width="0.2"/>
</svg>
